<svg xmlns="http://www.w3.org/2000/svg" width="103.694" height="114.912" viewBox="0 0 103.694 114.912"><defs><style>.a{fill:#2d00ff;}</style></defs><g transform="translate(-64.17 -29.91)"><g transform="translate(64.17 29.91)"><g transform="translate(37.269 55.384)"><g transform="translate(0 14.291)"><path class="a" d="M226.43,346.39a1.368,1.368,0,0,1-.966-2.335L238.415,331.1a1.368,1.368,0,0,1,1.934,1.934L227.4,345.99A1.372,1.372,0,0,1,226.43,346.39Z" transform="translate(-225.065 -330.705)"/></g><g transform="translate(12.95)"><path class="a" d="M295.109,298.808a1.363,1.363,0,0,1-.966-.4l-12.772-12.772a1.366,1.366,0,0,1-.4-.966V270.377a1.367,1.367,0,0,1,2.733,0V284.1l12.372,12.372a1.37,1.37,0,0,1,0,1.934A1.353,1.353,0,0,1,295.109,298.808Z" transform="translate(-280.97 -269.01)"/></g></g><g transform="translate(35.012)"><g transform="translate(23.696 32.264)"><path class="a" d="M318.987,185.984a1.366,1.366,0,0,1-1.367-1.367V170.567a1.367,1.367,0,0,1,2.733,0v14.051A1.368,1.368,0,0,1,318.987,185.984Z" transform="translate(-317.62 -169.2)"/></g><g transform="translate(6.486 32.264)"><path class="a" d="M261.9,185.984H244.687a1.366,1.366,0,0,1-1.367-1.367V170.567a1.367,1.367,0,0,1,2.733,0v12.684H261.9a1.367,1.367,0,1,1,0,2.733Z" transform="translate(-243.32 -169.2)"/></g><g transform="translate(7.218)"><path class="a" d="M255.836,48.622a9.356,9.356,0,1,1,9.356-9.356A9.367,9.367,0,0,1,255.836,48.622Zm0-15.978a6.622,6.622,0,1,0,6.622,6.622A6.63,6.63,0,0,0,255.836,32.643Z" transform="translate(-246.48 -29.91)"/></g><g transform="translate(0 20.938)"><path class="a" d="M216.687,148.411a1.366,1.366,0,0,1-1.367-1.367V126.862a6.57,6.57,0,0,1,6.562-6.562H241.9a6.57,6.57,0,0,1,6.562,6.562v18.232a1.367,1.367,0,0,1-2.733,0V126.862a3.833,3.833,0,0,0-3.829-3.829H221.882a3.833,3.833,0,0,0-3.829,3.829v20.182A1.368,1.368,0,0,1,216.687,148.411Z" transform="translate(-215.32 -120.3)"/></g><g transform="translate(15.207 20.935)"><path class="a" d="M282.337,132.282a1.366,1.366,0,0,1-1.367-1.367v-9.258a1.367,1.367,0,1,1,2.733,0v9.258A1.366,1.366,0,0,1,282.337,132.282Z" transform="translate(-280.97 -120.29)"/></g></g><g transform="translate(0 65.866)"><g transform="translate(23.696 32.262)"><path class="a" d="M167.837,470.324a1.366,1.366,0,0,1-1.367-1.367V454.907a1.367,1.367,0,0,1,2.733,0v14.051A1.366,1.366,0,0,1,167.837,470.324Z" transform="translate(-166.47 -453.54)"/></g><g transform="translate(6.486 32.262)"><path class="a" d="M110.747,470.324H93.537a1.366,1.366,0,0,1-1.367-1.367V454.907a1.367,1.367,0,0,1,2.733,0v12.684h15.844a1.367,1.367,0,0,1,0,2.733Z" transform="translate(-92.17 -453.54)"/></g><g transform="translate(7.218)"><path class="a" d="M104.686,332.971a9.356,9.356,0,1,1,9.356-9.356A9.367,9.367,0,0,1,104.686,332.971Zm0-15.978a6.622,6.622,0,1,0,6.622,6.622A6.631,6.631,0,0,0,104.686,316.993Z" transform="translate(-95.33 -314.26)"/></g><g transform="translate(0 20.935)"><path class="a" d="M65.537,432.751a1.366,1.366,0,0,1-1.367-1.367V411.2a6.57,6.57,0,0,1,6.562-6.562H90.755a6.57,6.57,0,0,1,6.562,6.562v18.232a1.367,1.367,0,1,1-2.733,0V411.2a3.833,3.833,0,0,0-3.829-3.829H70.732A3.833,3.833,0,0,0,66.9,411.2v20.182A1.366,1.366,0,0,1,65.537,432.751Z" transform="translate(-64.17 -404.64)"/></g><g transform="translate(15.207 20.935)"><path class="a" d="M131.187,416.632a1.366,1.366,0,0,1-1.367-1.367v-9.258a1.367,1.367,0,0,1,2.733,0v9.258A1.366,1.366,0,0,1,131.187,416.632Z" transform="translate(-129.82 -404.64)"/></g></g><g transform="translate(70.547 65.866)"><g transform="translate(23.696 32.262)"><path class="a" d="M472.4,470.324a1.366,1.366,0,0,1-1.367-1.367V454.907a1.367,1.367,0,0,1,2.733,0v14.051A1.366,1.366,0,0,1,472.4,470.324Z" transform="translate(-471.03 -453.54)"/></g><g transform="translate(6.486 32.262)"><path class="a" d="M415.307,470.324H398.1a1.366,1.366,0,0,1-1.367-1.367V454.907a1.367,1.367,0,0,1,2.733,0v12.684h15.844a1.367,1.367,0,0,1,0,2.733Z" transform="translate(-396.73 -453.54)"/></g><g transform="translate(7.218)"><path class="a" d="M409.246,332.971a9.356,9.356,0,1,1,9.356-9.356A9.367,9.367,0,0,1,409.246,332.971Zm0-15.978a6.622,6.622,0,1,0,6.622,6.622A6.631,6.631,0,0,0,409.246,316.993Z" transform="translate(-399.89 -314.26)"/></g><g transform="translate(0 20.935)"><path class="a" d="M370.1,432.751a1.366,1.366,0,0,1-1.367-1.367V411.2a6.57,6.57,0,0,1,6.562-6.562h20.023a6.57,6.57,0,0,1,6.562,6.562v18.232a1.367,1.367,0,1,1-2.733,0V411.2a3.833,3.833,0,0,0-3.829-3.829H375.292a3.833,3.833,0,0,0-3.829,3.829v20.182A1.366,1.366,0,0,1,370.1,432.751Z" transform="translate(-368.73 -404.64)"/></g><g transform="translate(15.207 20.935)"><path class="a" d="M435.747,416.632a1.366,1.366,0,0,1-1.367-1.367v-9.258a1.367,1.367,0,1,1,2.733,0v9.258A1.366,1.366,0,0,1,435.747,416.632Z" transform="translate(-434.38 -404.64)"/></g></g></g></g></svg>