<svg xmlns="http://www.w3.org/2000/svg" width="127.177" height="127.942" viewBox="0 0 127.177 127.942"><defs><style>.a{fill:#2d00ff;}</style></defs><g transform="translate(-34.7 -21.41)"><g transform="translate(34.7 21.41)"><g transform="translate(43.72 58.994)"><g transform="translate(16.274 6.34)"><path class="a" d="M294.746,309.724a1.431,1.431,0,0,1-1.016-.422l-8.2-8.2a1.434,1.434,0,0,1,0-2.032l3.21-3.21a5.941,5.941,0,0,1,4.226-1.751h0a5.931,5.931,0,0,1,4.226,1.751,1.437,1.437,0,0,1-2.032,2.034,3.079,3.079,0,0,0-2.192-.908h0a3.091,3.091,0,0,0-2.195.908l-2.192,2.192,7.183,7.183a1.437,1.437,0,0,1-1.021,2.453Z" transform="translate(-285.11 -294.11)"/></g><g transform="translate(50.21 6.336)"><path class="a" d="M444.834,321.455a1.437,1.437,0,0,1-1.3-.831c0-.01-.508-1.088-1.744-3.5a88.877,88.877,0,0,0-14.638-20.6,1.437,1.437,0,1,1,2.084-1.979,91.832,91.832,0,0,1,15.113,21.27c1.267,2.473,1.771,3.555,1.792,3.6a1.438,1.438,0,0,1-1.3,2.044Z" transform="translate(-426.753 -294.093)"/></g><g transform="translate(9.553 28.534)"><path class="a" d="M295.193,412.5a1.419,1.419,0,0,1-.8-.244,31.172,31.172,0,0,0-13.965-4.468,36.081,36.081,0,0,1-6.771-1.069,31.593,31.593,0,0,1-14.61-8.345,6.82,6.82,0,0,1,7.592-11.054l7.973,3.546a1.437,1.437,0,1,1-1.169,2.626l-7.973-3.546a3.945,3.945,0,0,0-4.392,6.394,28.736,28.736,0,0,0,13.278,7.588,33.305,33.305,0,0,0,6.229.987,33.52,33.52,0,0,1,15.405,4.95,1.441,1.441,0,0,1-.8,2.635Z" transform="translate(-257.055 -386.743)"/></g><g transform="translate(0 1.019)"><path class="a" d="M233.462,296.043a1.431,1.431,0,0,1-1.016-.422l-13.515-13.515a5.979,5.979,0,0,1,4.226-10.206h0a5.941,5.941,0,0,1,4.226,1.751l8.527,8.527a1.437,1.437,0,0,1-2.032,2.034l-8.527-8.527a3.08,3.08,0,0,0-2.195-.908h0a3.1,3.1,0,0,0-2.192,5.3l13.515,13.515a1.44,1.44,0,0,1,0,2.034A1.463,1.463,0,0,1,233.462,296.043Z" transform="translate(-217.182 -271.9)"/></g><g transform="translate(25.095 2.318)"><path class="a" d="M331.56,292.936a1.431,1.431,0,0,1-1.016-.422l-8.2-8.2a1.44,1.44,0,0,1,0-2.034l3.21-3.21a5.985,5.985,0,0,1,8.455,0l7.774,7.772a1.437,1.437,0,0,1-2.032,2.034l-7.775-7.772a3.107,3.107,0,0,0-4.389,0L325.4,283.3l7.183,7.183a1.44,1.44,0,0,1-1.021,2.456Z" transform="translate(-321.925 -277.323)"/></g><g transform="translate(35.615)"><path class="a" d="M381.888,276.838a1.431,1.431,0,0,1-1.016-.422l-4.988-4.988a3.1,3.1,0,0,0-4.387,0l-3.208,3.21a1.438,1.438,0,1,1-2.034-2.034l3.21-3.21a5.984,5.984,0,0,1,8.452,0l4.988,4.988a1.439,1.439,0,0,1-1.018,2.456Z" transform="translate(-365.835 -267.646)"/></g><g transform="translate(48.737 34.053)"><path class="a" d="M429,444.675a1.424,1.424,0,0,1-1.028-.434l-6.955-7.13a1.438,1.438,0,0,1,.012-2.02l24.89-24.89a1.476,1.476,0,0,1,1.025-.422,1.439,1.439,0,0,1,1.021.434l6.955,7.13a1.437,1.437,0,0,1-2.058,2.005l-5.939-6.088L424.062,436.12l5.963,6.114a1.435,1.435,0,0,1-.026,2.032A1.42,1.42,0,0,1,429,444.675Z" transform="translate(-420.606 -409.78)"/></g><g transform="translate(72.164 43.655)"><path class="a" d="M520.7,454.472a2.3,2.3,0,1,1,1.632-.673A2.306,2.306,0,0,1,520.7,454.472Zm0-2.873a.567.567,0,1,0,.4.165A.558.558,0,0,0,520.7,451.6Z" transform="translate(-518.39 -449.86)"/></g></g><g transform="translate(28.918 18.64)"><g transform="translate(9.332)"><path class="a" d="M206.114,122.737a11.764,11.764,0,1,1,11.764-11.764A11.776,11.776,0,0,1,206.114,122.737Zm0-20.654A8.889,8.889,0,1,0,215,110.971,8.9,8.9,0,0,0,206.114,102.083Z" transform="translate(-194.35 -99.21)"/></g><g transform="translate(0 27.056)"><path class="a" d="M156.837,247.823a1.439,1.439,0,0,1-1.437-1.437V220.3a8.165,8.165,0,0,1,8.155-8.155h25.882a8.165,8.165,0,0,1,8.155,8.155,1.438,1.438,0,0,1-2.875,0,5.286,5.286,0,0,0-5.28-5.28H163.555a5.287,5.287,0,0,0-5.28,5.28v26.091A1.436,1.436,0,0,1,156.837,247.823Z" transform="translate(-155.4 -212.14)"/></g><g transform="translate(19.658 27.059)"><path class="a" d="M238.887,222.323a1.439,1.439,0,0,1-1.437-1.438v-7.3a1.438,1.438,0,0,1,2.875,0v7.3A1.439,1.439,0,0,1,238.887,222.323Z" transform="translate(-237.45 -212.15)"/></g></g><path class="a" d="M78.6,121.05a1.585,1.585,0,0,1-.182-.012,49.975,49.975,0,1,1,55.631-41.4,1.438,1.438,0,1,1-2.837-.47,47.138,47.138,0,1,0-52.435,39.014,1.438,1.438,0,0,1-.177,2.865Z" transform="translate(-34.7 -21.41)"/></g></g></svg>