<svg xmlns="http://www.w3.org/2000/svg" width="103.196" height="110.735" viewBox="0 0 103.196 110.735"><defs><style>.a{fill:#2d00ff;}</style></defs><g transform="translate(-87.04 -55.47)"><g transform="translate(87.04 55.47)"><g transform="translate(4.793 14.691)"><path class="a" d="M204.142,213.214H108.6a1.43,1.43,0,0,1-1.429-1.429V118.6a1.429,1.429,0,0,1,2.857,0v91.76h94.117a1.427,1.427,0,1,1,0,2.855Z" transform="translate(-107.17 -117.17)"/></g><g transform="translate(69.547 78.664)"><path class="a" d="M404.281,388.7H380.549a1.429,1.429,0,0,1,0-2.857h23.732a1.429,1.429,0,0,1,0,2.857Z" transform="translate(-379.12 -385.84)"/></g><g transform="translate(69.547 88.329)"><path class="a" d="M404.281,429.287H380.549a1.429,1.429,0,0,1,0-2.857h23.732a1.429,1.429,0,0,1,0,2.857Z" transform="translate(-379.12 -426.43)"/></g><g transform="translate(69.547 97.994)"><path class="a" d="M404.281,469.877H380.549a1.429,1.429,0,1,1,0-2.857h23.732a1.429,1.429,0,1,1,0,2.857Z" transform="translate(-379.12 -467.02)"/></g><g transform="translate(67.025)"><g transform="translate(10.513)"><path class="a" d="M420.421,70.952a7.741,7.741,0,1,1,7.741-7.741A7.75,7.75,0,0,1,420.421,70.952Zm0-12.625a4.884,4.884,0,1,0,4.884,4.884A4.889,4.889,0,0,0,420.421,58.327Z" transform="translate(-412.68 -55.47)"/></g><g transform="translate(12.155 41.3)"><path class="a" d="M421.161,258.9a1.58,1.58,0,0,1-1.581-1.581V230.5a1.581,1.581,0,1,1,3.162,0v26.813A1.58,1.58,0,0,1,421.161,258.9Z" transform="translate(-419.58 -228.92)"/></g><g transform="translate(21.189 41.3)"><path class="a" d="M459.1,258.436a1.58,1.58,0,0,1-1.581-1.581V230.5a1.581,1.581,0,0,1,3.162,0v26.356A1.583,1.583,0,0,1,459.1,258.436Z" transform="translate(-457.52 -228.92)"/></g><g transform="translate(0 22.868)"><path class="a" d="M382.121,161.663H369.959a1.429,1.429,0,0,1,0-2.857h12.163a3.237,3.237,0,0,0,3.234-3.234v-2.633a1.429,1.429,0,0,1,2.857,0v2.633A6.1,6.1,0,0,1,382.121,161.663Z" transform="translate(-368.53 -151.51)"/></g><g transform="translate(9.51 16.384)"><path class="a" d="M421.73,152.205H412.7a1.424,1.424,0,0,1-1.26-.757,25.139,25.139,0,0,1-2.674-8.053,1.429,1.429,0,1,1,2.824-.433,22.333,22.333,0,0,0,1.986,6.384h7.281a22.468,22.468,0,0,0,2.245-9.77v-6.553a5.886,5.886,0,1,0-11.772,0v3.034a1.429,1.429,0,0,1-2.857,0v-3.034a8.743,8.743,0,1,1,17.487,0v6.553a25.351,25.351,0,0,1-2.964,11.87A1.428,1.428,0,0,1,421.73,152.205Z" transform="translate(-408.47 -124.28)"/></g></g><g transform="translate(69.547 68.999)"><path class="a" d="M404.281,386.986a1.43,1.43,0,0,1-1.429-1.429v-37.45H381.977v37.45a1.429,1.429,0,0,1-2.857,0V346.679a1.43,1.43,0,0,1,1.429-1.429h23.732a1.43,1.43,0,0,1,1.429,1.429v38.878A1.427,1.427,0,0,1,404.281,386.986Z" transform="translate(-379.12 -345.25)"/></g><g transform="translate(0.001 7.82)"><path class="a" d="M88.472,96.034a1.43,1.43,0,0,1-1.01-2.441l4.865-4.865a1.426,1.426,0,0,1,1.01-.419h0a1.433,1.433,0,0,1,1.012.421l4.717,4.736a1.429,1.429,0,0,1-2.026,2.017l-3.707-3.722-3.853,3.853A1.418,1.418,0,0,1,88.472,96.034Z" transform="translate(-87.045 -88.31)"/></g><g transform="translate(49.952 24.836)"><path class="a" d="M307.769,167.962a1.428,1.428,0,0,1-1.141-.567l-3.172-4.186-4.338,3.3a1.429,1.429,0,1,1-1.731-2.274l5.477-4.165a1.43,1.43,0,0,1,2,.274l4.036,5.329a1.427,1.427,0,0,1-1.136,2.291Z" transform="translate(-296.825 -159.777)"/></g><g transform="translate(0 22.825)"><path class="a" d="M98.053,154.187H88.469a1.429,1.429,0,1,1,0-2.857H98.05a1.429,1.429,0,0,1,0,2.857Z" transform="translate(-87.04 -151.33)"/></g><g transform="translate(0 37.2)"><path class="a" d="M98.053,214.557H88.469a1.429,1.429,0,0,1,0-2.857H98.05a1.429,1.429,0,0,1,0,2.857Z" transform="translate(-87.04 -211.7)"/></g><g transform="translate(0 51.572)"><path class="a" d="M98.053,274.917H88.469a1.429,1.429,0,0,1,0-2.857H98.05a1.429,1.429,0,0,1,0,2.857Z" transform="translate(-87.04 -272.06)"/></g><g transform="translate(0 65.947)"><path class="a" d="M98.053,335.287H88.469a1.429,1.429,0,0,1,0-2.857H98.05a1.429,1.429,0,0,1,0,2.857Z" transform="translate(-87.04 -332.43)"/></g><g transform="translate(0 80.321)"><path class="a" d="M98.053,395.657H88.469a1.429,1.429,0,0,1,0-2.857H98.05a1.429,1.429,0,0,1,0,2.857Z" transform="translate(-87.04 -392.8)"/></g><g transform="translate(0 94.694)"><path class="a" d="M98.053,456.017H88.469a1.429,1.429,0,1,1,0-2.857H98.05a1.429,1.429,0,0,1,0,2.857Z" transform="translate(-87.04 -453.16)"/></g><g transform="translate(16.826 30.164)"><path class="a" d="M159.135,249.541a1.466,1.466,0,0,1-.448-.071,1.428,1.428,0,0,1-.91-1.8l4.679-14.177a1.429,1.429,0,0,1,1.357-.981h8.9l6.646-27.847a1.429,1.429,0,0,1,1.391-1.1h10.643l4.226-20.273a1.429,1.429,0,0,1,2.8.583l-4.465,21.411a1.429,1.429,0,0,1-1.4,1.138H181.879l-6.646,27.847a1.429,1.429,0,0,1-1.391,1.1h-9l-4.355,13.2A1.433,1.433,0,0,1,159.135,249.541Z" transform="translate(-157.706 -182.152)"/></g><g transform="translate(14.448 51.572)"><g transform="translate(18.127 0.002)"><path class="a" d="M225.279,274.923a1.423,1.423,0,0,1-1.429-1.429,1.38,1.38,0,0,1,.026-.279,1.5,1.5,0,0,1,.081-.267,1.463,1.463,0,0,1,.133-.248,1.4,1.4,0,0,1,.176-.217,1.445,1.445,0,0,1,1.291-.391,1.5,1.5,0,0,1,.267.081,1.359,1.359,0,0,1,.245.133,1.293,1.293,0,0,1,.219.176,1.556,1.556,0,0,1,.176.217,1.45,1.45,0,0,1,.131.248,1.506,1.506,0,0,1,.083.267,1.577,1.577,0,0,1,.026.279,1.423,1.423,0,0,1-1.426,1.429Z" transform="translate(-223.85 -272.067)"/></g><g transform="translate(4.531)"><path class="a" d="M177.251,274.917h-.01a1.429,1.429,0,1,1,.01,0Zm-4.531,0h-.01a1.429,1.429,0,1,1,.01,0Zm-4.531,0h-.01a1.429,1.429,0,1,1,.01,0Z" transform="translate(-166.75 -272.06)"/></g><g transform="translate(0 0.002)"><path class="a" d="M149.149,274.923a1.38,1.38,0,0,1-.279-.026,1.5,1.5,0,0,1-.267-.083,1.45,1.45,0,0,1-.248-.131,1.555,1.555,0,0,1-.217-.176,1.437,1.437,0,0,1-.419-1.012,1.383,1.383,0,0,1,.029-.279,1.5,1.5,0,0,1,.081-.267,1.639,1.639,0,0,1,.131-.248,1.414,1.414,0,0,1,.179-.217,1.275,1.275,0,0,1,.217-.176,1.463,1.463,0,0,1,.248-.133,1.5,1.5,0,0,1,.267-.081,1.443,1.443,0,0,1,1.288.391,1.542,1.542,0,0,1,.179.217,1.45,1.45,0,0,1,.131.248,1.5,1.5,0,0,1,.083.267,1.574,1.574,0,0,1,.026.279,1.417,1.417,0,0,1-.636,1.188,1.347,1.347,0,0,1-.245.131,1.5,1.5,0,0,1-.267.083A1.4,1.4,0,0,1,149.149,274.923Z" transform="translate(-147.72 -272.067)"/></g></g><g transform="translate(14.448 22.825)"><g transform="translate(31.683 0.002)"><path class="a" d="M282.209,154.192a1.431,1.431,0,0,1-1.01-.419,1.31,1.31,0,0,1-.179-.217,1.413,1.413,0,0,1-.212-.514,1.373,1.373,0,0,1,0-.557,1.278,1.278,0,0,1,.081-.267,1.293,1.293,0,0,1,.131-.248,1.312,1.312,0,0,1,.179-.217,1.436,1.436,0,0,1,1.288-.39,1.5,1.5,0,0,1,.267.081,1.536,1.536,0,0,1,.248.131,1.417,1.417,0,0,1,.217.179,1.313,1.313,0,0,1,.179.217,1.442,1.442,0,0,1,.131.248,1.278,1.278,0,0,1,.081.267,1.373,1.373,0,0,1,0,.557,1.344,1.344,0,0,1-.081.269,1.51,1.51,0,0,1-.131.245,1.311,1.311,0,0,1-.179.217,1.417,1.417,0,0,1-.217.179,1.537,1.537,0,0,1-.248.131,1.325,1.325,0,0,1-.267.081A1.366,1.366,0,0,1,282.209,154.192Z" transform="translate(-280.78 -151.336)"/></g><g transform="translate(4.526)"><path class="a" d="M190.8,154.187h-.01a1.429,1.429,0,1,1,.01,0Zm-4.526,0h-.01a1.429,1.429,0,1,1,.01,0Zm-4.526,0h-.01a1.429,1.429,0,1,1,.01,0Zm-4.526,0h-.01a1.429,1.429,0,1,1,.01,0Zm-4.524,0h-.01a1.429,1.429,0,1,1,.01,0Zm-4.526,0h-.01a1.429,1.429,0,1,1,.01,0Z" transform="translate(-166.73 -151.33)"/></g><g transform="translate(0 0.002)"><path class="a" d="M149.149,154.192a1.383,1.383,0,0,1-.279-.029,1.324,1.324,0,0,1-.267-.081,1.449,1.449,0,0,1-.248-.131,1.416,1.416,0,0,1-.217-.179,1.431,1.431,0,0,1-.419-1.01,1.365,1.365,0,0,1,.029-.279,1.412,1.412,0,0,1,.212-.514,1.309,1.309,0,0,1,.179-.217,1.415,1.415,0,0,1,.217-.179,1.639,1.639,0,0,1,.248-.131,1.322,1.322,0,0,1,.267-.081,1.443,1.443,0,0,1,1.291.39,1.428,1.428,0,0,1,.176.217,1.347,1.347,0,0,1,.131.245,1.528,1.528,0,0,1,.083.269,1.494,1.494,0,0,1,0,.557,1.528,1.528,0,0,1-.083.269,1.346,1.346,0,0,1-.131.245,1.379,1.379,0,0,1-.4.4,1.346,1.346,0,0,1-.245.131,1.324,1.324,0,0,1-.267.081A1.407,1.407,0,0,1,149.149,154.192Z" transform="translate(-147.72 -151.336)"/></g></g></g></g></svg>