<svg xmlns="http://www.w3.org/2000/svg" width="55.66" height="55.665" viewBox="0 0 55.66 55.665"><defs><style>.a{fill:#2d00ff;}</style></defs><g transform="translate(-76.99 -67.45)"><path class="a" d="M132.65,95.283a27.676,27.676,0,0,0-6.77-18.191l.033-.016-.976-1.022a27.585,27.585,0,0,0-20.119-8.6,28.219,28.219,0,0,0-5.635.564A27.57,27.57,0,0,0,84.7,76.054l-.977,1.023.034.017a27.834,27.834,0,0,0,0,36.378l-.034.016.977,1.023a27.583,27.583,0,0,0,20.12,8.6,28.446,28.446,0,0,0,2.85-.142c.869-.087,1.728-.219,2.576-.385.528-.1,1.053-.217,1.572-.351a27.351,27.351,0,0,0,7.65-3.272c.153-.095.3-.2.451-.3.24-.156.482-.309.718-.473a28.2,28.2,0,0,0,4.3-3.685l.976-1.022-.033-.016A27.668,27.668,0,0,0,132.65,95.283Zm-10.92,19.451c-.072.063-.141.129-.213.191q-.484.415-.986.8c-.067.052-.137.1-.205.152-.267.2-.535.4-.808.593-.123.086-.249.166-.373.249-.222.15-.445.3-.672.442-.143.09-.289.174-.434.261-.212.128-.425.255-.641.377-.154.087-.312.169-.468.252-.21.112-.421.224-.635.33-.163.081-.327.158-.491.236-.212.1-.424.2-.638.292-.169.074-.339.145-.51.215q-.32.133-.644.257c-.174.066-.348.13-.523.192q-.326.116-.656.223-.245.08-.492.155a22.724,22.724,0,0,0,5.234-7.406,35.384,35.384,0,0,1,4.831,1.58Q122.073,114.436,121.731,114.734Zm-25.582,4.842c-.177-.063-.353-.128-.529-.194-.214-.081-.426-.167-.637-.254-.173-.071-.346-.144-.518-.219-.211-.092-.419-.189-.628-.288-.168-.079-.335-.158-.5-.24-.21-.1-.416-.214-.623-.325-.16-.086-.322-.17-.48-.259-.21-.118-.418-.243-.625-.367-.15-.09-.3-.177-.449-.27-.219-.137-.433-.282-.648-.426-.132-.089-.266-.174-.4-.266-.255-.178-.5-.364-.753-.552-.086-.065-.175-.126-.261-.193q-.5-.385-.979-.8c-.09-.077-.176-.159-.265-.237-.211-.185-.421-.372-.626-.564a35.575,35.575,0,0,1,4.832-1.581,22.713,22.713,0,0,0,5.235,7.408c-.167-.05-.332-.1-.5-.157C96.581,119.726,96.365,119.652,96.149,119.576ZM87.872,75.86c.083-.073.164-.149.248-.221q.482-.412.981-.8c.079-.061.161-.117.24-.177.255-.193.512-.384.774-.568.128-.09.261-.174.391-.261.217-.146.434-.292.655-.431.147-.092.3-.179.446-.268.208-.125.417-.25.629-.369.158-.088.318-.172.478-.257.207-.111.415-.221.625-.326.165-.082.332-.16.5-.239.209-.1.418-.2.63-.289.171-.075.344-.147.517-.218.212-.087.424-.172.637-.254q.263-.1.529-.194.323-.115.65-.221.248-.081.5-.156a22.715,22.715,0,0,0-5.235,7.408,35.516,35.516,0,0,1-4.832-1.581C87.441,76.241,87.656,76.05,87.872,75.86Zm25.617-4.869c.175.062.349.126.522.192q.324.124.645.257c.17.071.341.141.51.215.214.094.426.192.637.292.165.078.329.155.493.236.213.106.423.217.632.33.157.084.315.167.471.254.214.12.424.247.635.373.147.088.3.174.441.265.222.139.439.286.657.432.13.087.261.17.388.259.258.18.512.369.763.56.083.063.169.121.252.186q.5.385.978.8c.1.081.187.168.281.251.206.181.411.363.612.551a35.447,35.447,0,0,1-4.831,1.58,22.707,22.707,0,0,0-5.234-7.406c.164.05.328.1.491.154Q113.163,70.875,113.489,70.991Zm7.6,23.265a42.4,42.4,0,0,0-2.693-14.322,36.074,36.074,0,0,0,5.552-1.925,25.616,25.616,0,0,1,6.63,16.247ZM105.843,69.579c3.89.5,7.35,3.851,9.752,8.9a53.8,53.8,0,0,1-9.752,1.038Zm-2.052,0v9.938a53.82,53.82,0,0,1-9.75-1.038C96.443,73.431,99.9,70.085,103.791,69.579ZM93.211,80.4a54.642,54.642,0,0,0,10.58,1.171V94.257H90.6A40.822,40.822,0,0,1,93.211,80.4Zm10.58,15.91V109a54.615,54.615,0,0,0-10.58,1.171A40.836,40.836,0,0,1,90.6,96.31h13.188Zm0,14.738v9.938c-3.889-.506-7.348-3.852-9.75-8.9A53.9,53.9,0,0,1,103.791,111.048Zm2.052,9.939v-9.939a53.878,53.878,0,0,1,9.752,1.039C113.193,117.136,109.733,120.482,105.843,120.986Zm10.582-10.82A54.636,54.636,0,0,0,105.843,109V96.309h13.19A40.81,40.81,0,0,1,116.425,110.167Zm-10.582-15.91V81.57A54.674,54.674,0,0,0,116.425,80.4a40.837,40.837,0,0,1,2.608,13.858h-13.19Zm-14.6-14.322a42.394,42.394,0,0,0-2.693,14.322H79.067a25.634,25.634,0,0,1,6.626-16.248A36.1,36.1,0,0,0,91.245,79.935ZM88.552,96.309a42.4,42.4,0,0,0,2.693,14.322,36.186,36.186,0,0,0-5.553,1.926,25.633,25.633,0,0,1-6.626-16.247Zm29.84,14.322a42.4,42.4,0,0,0,2.693-14.322h9.488a25.612,25.612,0,0,1-6.63,16.247A36.049,36.049,0,0,0,118.392,110.631Z" transform="translate(0)"/></g></svg>