<svg xmlns="http://www.w3.org/2000/svg" width="58.189" height="55.752" viewBox="0 0 58.189 55.752"><defs><style>.a{fill:#2d00ff;}</style></defs><g transform="translate(-11.001 -18.59)"><g transform="translate(11.001 18.59)"><g transform="translate(0 0)"><path class="a" d="M60.793,88.138a11.012,11.012,0,0,0,3.4,2.294l-1.3.994-2.556-1.763.456-1.525ZM57.2,75.577l1.439-.048A10.884,10.884,0,0,0,57.57,79.4l-1.235-.837.864-2.981Zm12.86-7.385L70.5,69.54a11.077,11.077,0,0,0-3.982,0l.439-1.348ZM80.643,78l-1.246.922a10.857,10.857,0,0,0-1.259-3.852l1.521-.014L80.643,78ZM77.171,89.278l-2.481,1.865-1.351-.949a11.009,11.009,0,0,0,3.3-2.484l.534,1.569ZM60.313,83.813l-.01-.02-.071-.174c-.007-.02-.017-.041-.024-.061-.02-.051-.041-.105-.061-.16-.01-.027-.02-.054-.031-.085-.027-.078-.054-.153-.078-.231L60,82.948a1.018,1.018,0,0,0-.034-.109c-.014-.044-.027-.092-.037-.136s-.02-.071-.027-.105c-.014-.051-.027-.105-.041-.157-.007-.031-.014-.058-.02-.088-.017-.078-.034-.153-.051-.231l-.02-.112c-.01-.044-.017-.092-.024-.136l-.02-.123c-.007-.044-.014-.085-.02-.129s-.01-.082-.017-.123-.014-.105-.02-.157a8.9,8.9,0,1,1,17.747-1c0,.18-.007.357-.017.534,0,.085-.01.167-.017.252a.058.058,0,0,1,0,.024,8.844,8.844,0,0,1-.446,2.083c-.01.031-.02.061-.031.088s-.031.082-.044.126l-.051.133c-.007.017-.014.031-.02.048a8.94,8.94,0,0,1-6.02,5.319c-.02,0-.037.01-.058.014-.051.014-.1.027-.157.037-.037.01-.075.017-.109.024s-.075.017-.112.024a9.015,9.015,0,0,1-3.417.041.793.793,0,0,0-.1-.017c-.044-.01-.092-.017-.136-.027a8.924,8.924,0,0,1-6.364-5.23Zm2.61,9.933a1.028,1.028,0,0,0,.63-.214l3.1-2.372.061.01c.061.01.119.02.18.027l.071.01c.068.01.136.017.2.027l.048.007c.075.01.153.017.228.024a.043.043,0,0,1,.02,0c.34.031.684.048,1.031.048a10.8,10.8,0,0,0,1.633-.123h0c.068-.01.136-.02.2-.034a.577.577,0,0,0,.075-.014c.048-.007.1-.017.143-.027s.088-.017.133-.024l.1-.02.14-.031L74.1,93.276a1.037,1.037,0,0,0,1.222-.02l3.689-2.773a1.036,1.036,0,0,0,.357-1.167L78.111,85.64a10.966,10.966,0,0,0,.6-1.28l.02-.051c.024-.061.048-.123.068-.184a10.913,10.913,0,0,0,.616-2.648l3.056-2.26a1.04,1.04,0,0,0,.368-1.164l-1.46-4.376a1.039,1.039,0,0,0-.994-.711L76.668,73a11.034,11.034,0,0,0-3.754-2.719l-1.123-3.451a1.038,1.038,0,0,0-.987-.718H66.2a1.038,1.038,0,0,0-.987.718L64.09,70.279a10.972,10.972,0,0,0-4.1,3.124l-3.614.119a1.034,1.034,0,0,0-.963.749L54.13,78.7a1.032,1.032,0,0,0,.415,1.147l3.1,2.1c0,.007,0,.017,0,.024.007.048.014.1.024.143s.014.085.02.129.02.116.034.174a.932.932,0,0,1,.017.1c.017.078.034.153.051.228l.01.041c.065.276.136.544.221.81l.02.061c.02.065.041.133.065.2s.034.1.054.15.024.068.034.1c.027.071.054.143.082.211a.142.142,0,0,0,.014.034,11.017,11.017,0,0,0,.915,1.81l-1.079,3.617a1.034,1.034,0,0,0,.4,1.15l3.8,2.62a.942.942,0,0,0,.585.2Z" transform="translate(-39.425 -49.939)"/><path class="a" d="M85.364,93.176a3.648,3.648,0,1,1-3.648,3.648,3.653,3.653,0,0,1,3.648-3.648Zm0,9.372a5.724,5.724,0,1,0-5.724-5.724,5.73,5.73,0,0,0,5.724,5.724Z" transform="translate(-56.282 -66.425)"/><path class="a" d="M87.086,22.473a1.81,1.81,0,1,1,1.81,1.81,1.814,1.814,0,0,1-1.81-1.81ZM88.9,33.638A1.038,1.038,0,0,0,89.934,32.6V26.22a3.886,3.886,0,1,0-2.076,0V32.6A1.036,1.036,0,0,0,88.9,33.638Z" transform="translate(-59.825 -18.59)"/><path class="a" d="M151.5,77.147a1.811,1.811,0,1,1-2.171-2.545,1.861,1.861,0,0,1,.562-.088,1.807,1.807,0,0,1,1.719,1.252,1.8,1.8,0,0,1-.109,1.382Zm-2.811-4.519A3.894,3.894,0,0,0,146,76.491l-6.071,1.967a1.037,1.037,0,1,0,.64,1.974l6.071-1.967a3.9,3.9,0,0,0,3.246,1.746,3.886,3.886,0,1,0-1.2-7.582Z" transform="translate(-95.581 -54.112)"/><path class="a" d="M128.945,151.294a1.81,1.81,0,1,1-1.753,2.848h0a1.809,1.809,0,0,1,1.753-2.848Zm-3.434,4.067h0a3.885,3.885,0,1,0,1.79-5.925l-3.743-5.169a1.038,1.038,0,0,0-1.681,1.218l3.743,5.169a3.889,3.889,0,0,0-.109,4.706Z" transform="translate(-84.016 -101.215)"/><path class="a" d="M44.481,154.066a1.81,1.81,0,1,1-1.742-2.855,2.005,2.005,0,0,1,.282-.02,1.809,1.809,0,0,1,1.783,1.528,1.775,1.775,0,0,1-.323,1.348Zm5.125-10.083a1.035,1.035,0,0,0-1.45.228l-3.764,5.152a3.888,3.888,0,1,0-1.378,7.527,4.117,4.117,0,0,0,.609-.048,3.889,3.889,0,0,0,2.447-6.255l3.764-5.152a1.042,1.042,0,0,0-.228-1.453Z" transform="translate(-29.563 -101.18)"/><path class="a" d="M13.169,75.549A1.811,1.811,0,0,1,14.891,74.3a1.78,1.78,0,0,1,.561.092,1.809,1.809,0,1,1-2.283,1.154Zm.507,4.257A3.848,3.848,0,0,0,14.884,80a3.9,3.9,0,0,0,3.236-1.732l6.064,1.991a1.085,1.085,0,0,0,.323.051,1.038,1.038,0,0,0,.323-2.025l-6.064-1.991a3.885,3.885,0,1,0-5.091,3.512Z" transform="translate(-11.001 -53.974)"/></g></g></g></svg>