<svg xmlns="http://www.w3.org/2000/svg" width="44.15" height="57.404" viewBox="0 0 44.15 57.404"><defs><style>.a{fill:#2d00ff;}</style></defs><g transform="translate(-146.77 -99.51)"><path class="a" d="M153.469,126.24h2.584a.9.9,0,0,1,.9.9v5.271a.553.553,0,0,0,.548.548h2.269a.553.553,0,0,0,.548-.548v-5.271a.9.9,0,0,1,.9-.9h5.053a.9.9,0,0,1,.9.9v5.271a.553.553,0,0,0,.548.548h2.269a.553.553,0,0,0,.548-.548v-5.271a.9.9,0,0,1,.9-.9h5.053a.9.9,0,0,1,.9.9v5.271a.553.553,0,0,0,.548.548h2.269a.553.553,0,0,0,.548-.548v-5.271a.9.9,0,0,1,.9-.9h2.584a6.715,6.715,0,0,1,6.7,6.7v39.843a6.715,6.715,0,0,1-6.7,6.7H153.469a6.715,6.715,0,0,1-6.7-6.7V132.941a6.718,6.718,0,0,1,6.7-6.7Zm1.687,1.794h-1.687a4.924,4.924,0,0,0-4.907,4.907v39.843a4.924,4.924,0,0,0,4.907,4.907h30.745a4.924,4.924,0,0,0,4.907-4.907V132.941a4.924,4.924,0,0,0-4.907-4.907h-1.687v4.374a2.345,2.345,0,0,1-2.341,2.341h-2.269a2.345,2.345,0,0,1-2.341-2.341v-4.374h-3.259v4.374a2.345,2.345,0,0,1-2.341,2.341h-2.269a2.345,2.345,0,0,1-2.341-2.341v-4.374h-3.259v4.374a2.345,2.345,0,0,1-2.341,2.341H157.5a2.345,2.345,0,0,1-2.341-2.341v-4.374Z" transform="translate(0 -22.567)"/><path class="a" d="M177.2,243.17a.9.9,0,1,0,0,1.794h12.634a.9.9,0,1,0,0-1.794Z" transform="translate(-24.931 -121.288)"/><path class="a" d="M202.961,99.51h2.269a2.345,2.345,0,0,1,2.341,2.341v7.99a2.345,2.345,0,0,1-2.341,2.341h-2.269a2.345,2.345,0,0,1-2.341-2.341v-7.99a2.345,2.345,0,0,1,2.341-2.341Zm2.269,1.794h-2.269a.553.553,0,0,0-.548.548v7.99a.553.553,0,0,0,.548.548h2.269a.553.553,0,0,0,.548-.548v-7.99a.547.547,0,0,0-.162-.386A.54.54,0,0,0,205.23,101.3Z" transform="translate(-45.464 0)"/><path class="a" d="M268.531,99.51H270.8a2.345,2.345,0,0,1,2.341,2.341v7.99a2.345,2.345,0,0,1-2.341,2.341h-2.269a2.345,2.345,0,0,1-2.341-2.341v-7.99a2.345,2.345,0,0,1,2.341-2.341ZM270.8,101.3h-2.269a.553.553,0,0,0-.548.548v7.99a.553.553,0,0,0,.548.548H270.8a.553.553,0,0,0,.548-.548v-7.99a.547.547,0,0,0-.162-.386A.54.54,0,0,0,270.8,101.3Z" transform="translate(-100.823 0)"/><path class="a" d="M334.091,99.51h2.269a2.345,2.345,0,0,1,2.341,2.341v7.99a2.345,2.345,0,0,1-2.341,2.341h-2.269a2.345,2.345,0,0,1-2.341-2.341v-7.99a2.345,2.345,0,0,1,2.341-2.341Zm2.269,1.794h-2.269a.553.553,0,0,0-.548.548v7.99a.553.553,0,0,0,.548.548h2.269a.553.553,0,0,0,.548-.548v-7.99a.553.553,0,0,0-.548-.548Z" transform="translate(-156.173 0)"/><path class="a" d="M177.2,293.19a.9.9,0,1,0,0,1.794h22.878a.9.9,0,1,0,0-1.794Z" transform="translate(-24.931 -163.519)"/><path class="a" d="M177.2,343.2a.9.9,0,1,0,0,1.794h30.275a.9.9,0,1,0,0-1.794Z" transform="translate(-24.931 -205.741)"/><path class="a" d="M323.556,204.089a6.452,6.452,0,1,1-1.448-4.726,6.443,6.443,0,0,1,1.448,4.726Zm-3.456,2.987a4.662,4.662,0,1,0-3.417,1.05A4.654,4.654,0,0,0,320.1,207.076Z" transform="translate(-138.375 -82.324)"/><path class="a" d="M353.642,204.229a.9.9,0,0,0,0-1.794h-4.518v-4.518a.9.9,0,0,0-1.794,0v5.415a.9.9,0,0,0,.9.9Z" transform="translate(-169.327 -82.325)"/></g></svg>